<svg xmlns="http://www.w3.org/2000/svg" viewBox="0 0 100 100">
  <defs/>
  <path fill="currentColor" fill-rule="evenodd" d="M49.214 7.71v-.627h.179L49.39 4.57h.895l.002 2.513h.177v.74C51.314 7.912 52 8 52 8c3.756 10.998 3.217 23.928 3.217 23.928l-1.428 1.502h-1.537v4.48l-.252.181v.618l.252.131v6.019l.99.928v2.506h-.59v4.72h4.359v-.419h.993v.42h4.014v-5.948s.094-4.152 4-4.152 3.9 4.152 3.9 4.152v23.676l-.42.649-.137 20.057.227.01v.702l-1.303 1.458h-4.63l-1.293-1.458v-.701h.205V71.39l-.55-.65v-7.523h-9.366v1.174h.515v3.402h-.515v.63h-9.306v-.63h-.419v-3.402h.419v-1.174h-9.479v7.524l-.558.649v20.068h.218v.7l-1.263 1.46h-4.76l-1.198-1.46v-.7h.227v-20.19l-.542-.527V47.066s.313-4.152 4.006-4.152c3.692 0 3.87 4.152 3.87 4.152v5.947h4.31v-.419h.848v.42h4.321v-4.72h-.565v-2.507l1.023-.928V38.84L44 38.71v-.618l-.197-.181v-4.48h-1.524l-1.45-1.502S40.238 19.57 44 8c0 0 .724-.094 1.606-.184v-.733h.175l-.003-2.513h.894l.003 2.513h.182v.622c.42-.03.82-.05 1.143-.05.34 0 .767.022 1.214.056zm-21.77 64.48v19.24h5.02V72.19l-.55.318-.602 2.002-2.638.002-.648-2.004-.583-.319zm35.924 0v19.24h5.209V72.19l-.623.318-.667 2.004h-2.548l-.722-2.004-.65-.319z"/>
</svg>