<svg xmlns="http://www.w3.org/2000/svg" viewBox="0 0 100 100">
  <defs/>
  <path fill="currentColor" fill-rule="evenodd" d="M52 25h1v1.391c2.72.886 4.09 2.967 4.09 2.967l4.088 9.024c.454 1.002.822 2.712.822 3.806L61.96 47H62v22.895l-2 .437v2.865s-.42.29-2 .565v7.435l-2.86 5.932c-.238.492-.887.93-1.433.966 0 0-.859.102-3.207.102s-3.692-.113-3.692-.113c-.555-.035-1.172-.47-1.383-.983L43 81.197v-7.435c-1.58-.275-2-.565-2-.565v-2.56l-2-.436V42.188c0-1.1.4-2.788.9-3.781l4.546-9.049s1.022-2.047 3.554-2.945V25h1v-4h1v4h1v-4h1v4zm11 44.677l24.6-5.368V68h6V38h.4v-4h-1.4v4h.259l-.234 5.1h-.171l-.506-26.353.873-1.998-.554-.749H90.59l-.525.75.818 1.997-1.073 24.339L88.7 41l-1.1 2.1V47H63v22.677zM38 47H12v-3.9L10.9 41l-1.11.086-1.073-24.339.818-1.998L9.01 14H7.332l-.553.75.872 1.997L7.145 43.1h-.171L6.74 38H7v-4H5.6v4H6v30h6v-3.69l26 5.673V47zm9.577-17s-2.443 3.468-3.091 7.47c-.648 4 1.038 8.825 1.038 8.825s2.489 1.534 4.976 1.534 4.9-1.534 4.9-1.534 1.638-4.634 1.183-8.826C56.128 33.277 53.63 30 53.63 30s-.871 2.111-2.788 2.111c-1.916 0-3.266-2.111-3.266-2.111z"/>
</svg>