<svg xmlns="http://www.w3.org/2000/svg" viewBox="0 0 100 100">
  <defs/>
  <path fill="currentColor" fill-rule="evenodd" d="M48.403 10.54h2.421l1.624 10.127L54.34 55.64l.375 3.915.195.127.25 3.056h5.912l.137 2.92h3.69l.573.455 14.16.13v-3.122l-.218-.16v-1.27l1.05-.183V49.466l.258-.34v-9.449l-.258-.063-.52-.194.278-.731.5.2-.7-2.26h.782l.15-4.582h.213l.165 4.582h.878l-.768 2.26.606-.2.162.667-.501.258-.267.063v9.45l.267.34v12.04l1.054.184v1.27l-.183.16v.92l.254.191.149 2.011v4.29h.478v3.483h-.627v3.493l-.545.072v.689l.17.486h-2.437l.2-.486v-.69l-.506-.071v-.356l-14.244 3.53v-.704h-5.862l-.238 7.395.238 2.008-.238 2.886h-3.86l-.148-2.886.147-2.008V80.38h-.796l.445.5-.82 2.768H45l-.617-2.847.617-.42h-1.103v6.992l.167 2.008-.167 2.886h-4.102l-.17-2.886.17-2.008-.094-7.178h-5.199l-.576.486-14.132-3.375v.382h-.525v.828l.147.504H17.02v-.504h.28v-.669l-.599-.267-.106-3.216-.493-.158v-3.431h.316l.177-6.328.264-.144v-.993l-.264-.19v-1.096l.197-.334h.79V49.582l.32-.37.1-9.369-.702-.487.164-.667.538.2-.538-1.69.61-.205.143-4.777h.305l.11 4.777.636.204-.636 1.691.636-.2.147.667-.783.487v9.37l.297.37-.082 12.108h.846l.302.334v1.096l-.302.19v.921l.183.771-.083 1.47 14.132-.23 1.151-.584 3.082-.085V63.19l.904-.452h5.181l.222-3.056.175-.127L45 55.64l2.055-34.973z"/>
</svg>